<svg xmlns="http://www.w3.org/2000/svg" width="268.965" height="26.21" viewBox="0 0 268.965 26.21"><path d="M2709.137,363.348c9.493,5.606,64.877.25,74.136,8.472s11.349,8.864,14.987,8.221,13.507-8.31,16.943-8.221,19.617,2.415,21.492,2.562,15.777-.082,20.99,0,19.81-9.528,28.452-2.562,14.37,7.448,30.455,5.211,19.18-6.3,29.552-2.649,24.377,11.015,24.377,11.015-10.171-5.991-17.829-5.356-16.534-1.594-36.1,0-29.523-2.258-39.364-3.011-30.677,2.588-44.217,3.011-28.164,10.744-34.751,9.4-32.587-14.482-40.5-15.054-13.652-3.074-29.111-2.562a58.978,58.978,0,0,1-27.089-5.676Z" transform="translate(-2701.556 -363.348)"/></svg>