<svg xmlns="http://www.w3.org/2000/svg" width="559.435" height="21.764" viewBox="0 0 559.435 21.764"><path d="M2995.11,369.715c10.395,0,22.58,13.194,31.74,13.194s13.389-8.935,24.4-8.935h42.291c21.423,0,25.908-1.408,39.817,0s15.749,8.878,39.646,0,30.3-5.082,45.694-4.259,18.806,1.227,32.552,0,33.608-.4,45.8,0,53.188,4.538,66.5,13.194,21.191-1.241,44.192,0,66.263-6.608,83.251-2.48,57.688,3.253,59.5,2.48-3.382-2.378-14.477-2.48-26.656.787-34.443-1.77-23.646-5.052-31.567-3.343-54.635,6.952-66.759,5.113-29.017,4.166-39.7,0-28.2-10.327-42.712-11.747-53.411-5.248-62.976-2.838-29.678.633-64.272,0-16.621,14.145-57.338,5.5-86.264-2.037-97.72,2.634-13.845,2.3-22.512,0-21.141-12.6-23-8.13-2.409,6.392,0,5.5S2995.11,369.715,2995.11,369.715Z" transform="translate(-2991.408 -364.73)"/></svg>