<svg xmlns="http://www.w3.org/2000/svg" width="206.973" height="32.45" viewBox="0 0 206.973 32.45"><path d="M3365.224,450.527c-20.008-.212-34.8,14.522-42.4,14.522s-15.025-5-20.822-5.117-10.957,0-10.957,0-11.568-1.369-14.206-1.936-12.3,1.936-12.3,1.936h-8.967s-10.436,5.178-12.717,5.117-13.175-5.834-16.631-7.054-5.078-2.033-6.1,0-12.186,1.839-17.978,1.936-10.732-5.741-10.977,2.922-30.11,12.3-30.11,12.3,3.03,5.308,0,7.111,3.5-.163,5.26-2.317-5.663-3.113,5.02-3.173,9.6.335,13.951-3.246,7.9-11,12.326-10.677,10.375,1.513,15.3,2.195,8.416-4.449,11.26-2.195,14.565,8.451,18.673,7.32,8.947-7.661,17.252-7.32,8.182,2.119,11.861,0,19.567,3.192,24.084,2.195,12.575,0,12.575,0,16.844,8.675,23.231,5.125,14.189-13.757,22.22-14.073a60.15,60.15,0,0,0,13.166-1.813v-3.76Z" transform="translate(-3160.264 -450.524)"/></svg>