<svg xmlns="http://www.w3.org/2000/svg" width="118.238" height="38.597" viewBox="0 0 118.238 38.597"><path d="M2879.66,443.237c9.69,3.307-2.347,3.225,15.591,8.483s23.857,5.446,31.151,11.71,19.853,6.742,23.789,6.914,17.846.163,20.027,2.674,4.668.108,9.912,2.159,16.335.606,16.946,4.714,3.012-3.855-4.891-5.2-17.889-.288-20.548-2.93-12.377-2.911-18.469-3.258-23.675-3.493-27.49-6.646-10.685-10.178-18.515-9.594-18.053-2.565-21.128-7.13S2879.66,443.237,2879.66,443.237Z" transform="translate(-2879.66 -442.461)"/></svg>